<mxfile modified="2024-06-03T10:08:03.996Z" host="app.diagrams.net" agent="Mozilla/5.0 (Windows NT 10.0; Win64; x64; rv:126.0) Gecko/20100101 Firefox/126.0" etag="J2BggYXX8V3XVjNDS6wz" version="24.4.8" type="github">
  <diagram id="1JJ-UvxjRfw-XplDersZ" name="Page-1">
    <mxGraphModel dx="1434" dy="791" grid="1" gridSize="10" guides="1" tooltips="1" connect="1" arrows="1" fold="1" page="1" pageScale="1" pageWidth="1169" pageHeight="827" background="#ffffff" math="0" shadow="1">
      <root>
        <mxCell id="0" />
        <mxCell id="1" parent="0" />
        <mxCell id="uNwkJ2060_JhU6KTZqCs-42" value="" style="edgeStyle=none;rounded=1;orthogonalLoop=1;jettySize=auto;html=1;" parent="1" target="uNwkJ2060_JhU6KTZqCs-1" edge="1">
          <mxGeometry relative="1" as="geometry">
            <mxPoint x="360.33333333333326" y="420" as="sourcePoint" />
          </mxGeometry>
        </mxCell>
        <mxCell id="uNwkJ2060_JhU6KTZqCs-2" value="" style="edgeStyle=orthogonalEdgeStyle;rounded=1;orthogonalLoop=1;jettySize=auto;html=1;" parent="1" source="SG_5UfDZLsI8UljBUngQ-3" target="uNwkJ2060_JhU6KTZqCs-1" edge="1">
          <mxGeometry relative="1" as="geometry" />
        </mxCell>
        <mxCell id="SG_5UfDZLsI8UljBUngQ-3" value="&lt;div&gt;MBC-131&lt;/div&gt;&lt;div&gt;5,5 Wp&lt;/div&gt;&lt;div&gt;15,6V 0,35A&lt;/div&gt;" style="shape=image;html=1;verticalAlign=top;verticalLabelPosition=bottom;labelBackgroundColor=none;imageAspect=0;aspect=fixed;image=https://cdn0.iconfinder.com/data/icons/green-world-colored/80/sun-solar-panel-green-energy-plug-128.png;labelPosition=center;align=center;rounded=1;" parent="1" vertex="1">
          <mxGeometry x="108" y="226" width="128" height="128" as="geometry" />
        </mxCell>
        <mxCell id="SG_5UfDZLsI8UljBUngQ-11" value="GieÃŸkanne:&lt;br&gt;&lt;div&gt;10 L&lt;/div&gt;" style="shape=mxgraph.pid.vessels.tank;html=1;pointerEvents=1;align=center;verticalLabelPosition=bottom;verticalAlign=top;dashed=0;fillColor=#dae8fc;strokeColor=#6c8ebf;rounded=1;" parent="1" vertex="1">
          <mxGeometry x="692.5" y="363" width="40" height="95" as="geometry" />
        </mxCell>
        <mxCell id="SG_5UfDZLsI8UljBUngQ-13" value="12V 4,8W 240L/H Pumpe" style="shape=mxgraph.pid.pumps.submersible_pump;html=1;pointerEvents=1;align=center;verticalLabelPosition=top;verticalAlign=bottom;dashed=0;fillColor=#dae8fc;strokeColor=#6c8ebf;labelPosition=center;rounded=1;" parent="1" vertex="1">
          <mxGeometry x="661" y="235" width="103" height="74" as="geometry" />
        </mxCell>
        <mxCell id="SG_5UfDZLsI8UljBUngQ-15" style="edgeStyle=orthogonalEdgeStyle;rounded=1;orthogonalLoop=1;jettySize=auto;html=1;entryX=0.5;entryY=1;entryDx=0;entryDy=0;entryPerimeter=0;" parent="1" source="SG_5UfDZLsI8UljBUngQ-11" target="SG_5UfDZLsI8UljBUngQ-13" edge="1">
          <mxGeometry relative="1" as="geometry" />
        </mxCell>
        <mxCell id="SG_5UfDZLsI8UljBUngQ-17" value="" style="shape=image;html=1;verticalAlign=top;verticalLabelPosition=bottom;labelBackgroundColor=#ffffff;imageAspect=0;aspect=fixed;image=https://cdn1.iconfinder.com/data/icons/icons-for-a-site-1/64/advantage_eco_friendly-128.png;rounded=1;" parent="1" vertex="1">
          <mxGeometry x="811" y="338" width="128" height="128" as="geometry" />
        </mxCell>
        <mxCell id="SG_5UfDZLsI8UljBUngQ-18" value="" style="shape=image;html=1;verticalAlign=top;verticalLabelPosition=bottom;labelBackgroundColor=#ffffff;imageAspect=0;aspect=fixed;image=https://cdn1.iconfinder.com/data/icons/icons-for-a-site-1/64/advantage_eco_friendly-128.png;rounded=1;" parent="1" vertex="1">
          <mxGeometry x="951" y="338" width="128" height="128" as="geometry" />
        </mxCell>
        <mxCell id="SG_5UfDZLsI8UljBUngQ-20" value="" style="verticalLabelPosition=bottom;outlineConnect=0;align=center;dashed=0;html=1;verticalAlign=top;shape=mxgraph.pid.misc.spraying_device;pointerEvents=1;rounded=1;" parent="1" vertex="1">
          <mxGeometry x="836" y="288" width="60" height="20" as="geometry" />
        </mxCell>
        <mxCell id="SG_5UfDZLsI8UljBUngQ-21" value="" style="verticalLabelPosition=bottom;verticalAlign=top;html=1;shape=mxgraph.basic.drop;fillColor=#dae8fc;strokeColor=#6c8ebf;rounded=1;" parent="1" vertex="1">
          <mxGeometry x="841" y="308" width="10" height="20" as="geometry" />
        </mxCell>
        <mxCell id="SG_5UfDZLsI8UljBUngQ-24" value="" style="verticalLabelPosition=bottom;verticalAlign=top;html=1;shape=mxgraph.basic.drop;fillColor=#dae8fc;strokeColor=#6c8ebf;rounded=1;" parent="1" vertex="1">
          <mxGeometry x="870" y="316" width="10" height="20" as="geometry" />
        </mxCell>
        <mxCell id="SG_5UfDZLsI8UljBUngQ-25" value="" style="verticalLabelPosition=bottom;verticalAlign=top;html=1;shape=mxgraph.basic.drop;fillColor=#dae8fc;strokeColor=#6c8ebf;rounded=1;" parent="1" vertex="1">
          <mxGeometry x="886" y="308" width="10" height="20" as="geometry" />
        </mxCell>
        <mxCell id="SG_5UfDZLsI8UljBUngQ-26" value="" style="verticalLabelPosition=bottom;outlineConnect=0;align=center;dashed=0;html=1;verticalAlign=top;shape=mxgraph.pid.misc.spraying_device;pointerEvents=1;rounded=1;" parent="1" vertex="1">
          <mxGeometry x="971" y="288" width="60" height="20" as="geometry" />
        </mxCell>
        <mxCell id="SG_5UfDZLsI8UljBUngQ-27" value="" style="verticalLabelPosition=bottom;verticalAlign=top;html=1;shape=mxgraph.basic.drop;fillColor=#dae8fc;strokeColor=#6c8ebf;rounded=1;" parent="1" vertex="1">
          <mxGeometry x="976" y="308" width="10" height="20" as="geometry" />
        </mxCell>
        <mxCell id="SG_5UfDZLsI8UljBUngQ-28" value="" style="verticalLabelPosition=bottom;verticalAlign=top;html=1;shape=mxgraph.basic.drop;fillColor=#dae8fc;strokeColor=#6c8ebf;rounded=1;" parent="1" vertex="1">
          <mxGeometry x="1005" y="320" width="10" height="20" as="geometry" />
        </mxCell>
        <mxCell id="SG_5UfDZLsI8UljBUngQ-29" value="" style="verticalLabelPosition=bottom;verticalAlign=top;html=1;shape=mxgraph.basic.drop;fillColor=#dae8fc;strokeColor=#6c8ebf;rounded=1;" parent="1" vertex="1">
          <mxGeometry x="1021" y="308" width="10" height="20" as="geometry" />
        </mxCell>
        <mxCell id="SG_5UfDZLsI8UljBUngQ-38" value="" style="endArrow=none;html=1;rounded=1;" parent="1" edge="1">
          <mxGeometry width="50" height="50" relative="1" as="geometry">
            <mxPoint x="871" y="288" as="sourcePoint" />
            <mxPoint x="971" y="288" as="targetPoint" />
          </mxGeometry>
        </mxCell>
        <mxCell id="SG_5UfDZLsI8UljBUngQ-40" value="" style="endArrow=none;html=1;rounded=1;" parent="1" edge="1">
          <mxGeometry width="50" height="50" relative="1" as="geometry">
            <mxPoint x="766" y="288" as="sourcePoint" />
            <mxPoint x="836" y="288" as="targetPoint" />
          </mxGeometry>
        </mxCell>
        <mxCell id="SG_5UfDZLsI8UljBUngQ-55" style="edgeStyle=orthogonalEdgeStyle;rounded=1;orthogonalLoop=1;jettySize=auto;html=1;" parent="1" source="itPiGZFmY9J-Glkmf1jX-1" target="SG_5UfDZLsI8UljBUngQ-45" edge="1">
          <mxGeometry relative="1" as="geometry">
            <mxPoint x="653" y="126" as="sourcePoint" />
          </mxGeometry>
        </mxCell>
        <mxCell id="SG_5UfDZLsI8UljBUngQ-56" value="GPIO" style="edgeLabel;html=1;align=center;verticalAlign=bottom;resizable=0;points=[];rounded=1;labelBackgroundColor=none;labelPosition=center;verticalLabelPosition=top;" parent="SG_5UfDZLsI8UljBUngQ-55" vertex="1" connectable="0">
          <mxGeometry relative="1" as="geometry">
            <mxPoint as="offset" />
          </mxGeometry>
        </mxCell>
        <mxCell id="wnVql5pKMNQYz3PM4dVK-10" style="edgeStyle=orthogonalEdgeStyle;rounded=1;orthogonalLoop=1;jettySize=auto;html=1;entryX=1;entryY=0;entryDx=0;entryDy=0;" parent="1" source="SG_5UfDZLsI8UljBUngQ-45" target="SG_5UfDZLsI8UljBUngQ-17" edge="1">
          <mxGeometry relative="1" as="geometry" />
        </mxCell>
        <mxCell id="wnVql5pKMNQYz3PM4dVK-11" value="misst" style="edgeLabel;html=1;align=left;verticalAlign=middle;resizable=0;points=[];rounded=1;labelPosition=right;verticalLabelPosition=middle;labelBackgroundColor=none;" parent="wnVql5pKMNQYz3PM4dVK-10" vertex="1" connectable="0">
          <mxGeometry x="-0.2821" relative="1" as="geometry">
            <mxPoint as="offset" />
          </mxGeometry>
        </mxCell>
        <mxCell id="SG_5UfDZLsI8UljBUngQ-45" value="&lt;div&gt;???&lt;/div&gt;" style="sketch=0;outlineConnect=0;fontColor=#232F3E;gradientColor=none;fillColor=#7AA116;strokeColor=none;dashed=0;verticalLabelPosition=middle;verticalAlign=middle;align=left;html=1;fontSize=12;fontStyle=0;aspect=fixed;pointerEvents=1;shape=mxgraph.aws4.iot_thing_humidity_sensor;labelPosition=right;rounded=1;" parent="1" vertex="1">
          <mxGeometry x="900" y="87" width="78" height="78" as="geometry" />
        </mxCell>
        <mxCell id="SG_5UfDZLsI8UljBUngQ-63" value="" style="edgeStyle=orthogonalEdgeStyle;rounded=1;orthogonalLoop=1;jettySize=auto;html=1;exitX=1;exitY=0.8;exitDx=0;exitDy=0;endArrow=none;endFill=0;entryX=-0.016;entryY=0.739;entryDx=0;entryDy=0;entryPerimeter=0;" parent="1" source="SG_5UfDZLsI8UljBUngQ-61" target="SG_5UfDZLsI8UljBUngQ-13" edge="1">
          <mxGeometry relative="1" as="geometry" />
        </mxCell>
        <mxCell id="SG_5UfDZLsI8UljBUngQ-61" value="" style="html=1;shape=mxgraph.electrical.electro-mechanical.singleSwitch;aspect=fixed;elSwitchState=off;rounded=1;" parent="1" vertex="1">
          <mxGeometry x="543" y="274" width="75" height="20" as="geometry" />
        </mxCell>
        <mxCell id="SG_5UfDZLsI8UljBUngQ-64" style="edgeStyle=orthogonalEdgeStyle;rounded=1;orthogonalLoop=1;jettySize=auto;html=1;" parent="1" source="itPiGZFmY9J-Glkmf1jX-1" edge="1">
          <mxGeometry relative="1" as="geometry">
            <mxPoint x="589" y="250" as="targetPoint" />
            <Array as="points" />
            <mxPoint x="589" y="190" as="sourcePoint" />
          </mxGeometry>
        </mxCell>
        <mxCell id="SG_5UfDZLsI8UljBUngQ-65" value="&lt;div&gt;steuert&lt;/div&gt;" style="edgeLabel;html=1;align=center;verticalAlign=middle;resizable=0;points=[];rounded=1;labelBackgroundColor=none;" parent="SG_5UfDZLsI8UljBUngQ-64" vertex="1" connectable="0">
          <mxGeometry x="-0.3152" y="-1" relative="1" as="geometry">
            <mxPoint x="1" y="-1" as="offset" />
          </mxGeometry>
        </mxCell>
        <mxCell id="wnVql5pKMNQYz3PM4dVK-1" value="BMS" style="rounded=1;whiteSpace=wrap;html=1;" parent="1" vertex="1">
          <mxGeometry x="331" y="380" width="60" height="20" as="geometry" />
        </mxCell>
        <mxCell id="uNwkJ2060_JhU6KTZqCs-3" value="" style="edgeStyle=orthogonalEdgeStyle;rounded=1;orthogonalLoop=1;jettySize=auto;html=1;startArrow=classic;startFill=1;" parent="1" source="uNwkJ2060_JhU6KTZqCs-1" target="wnVql5pKMNQYz3PM4dVK-1" edge="1">
          <mxGeometry relative="1" as="geometry" />
        </mxCell>
        <mxCell id="uNwkJ2060_JhU6KTZqCs-5" value="12V" style="edgeLabel;html=1;align=left;verticalAlign=middle;resizable=0;points=[];rounded=1;labelBackgroundColor=none;labelPosition=right;verticalLabelPosition=middle;" parent="uNwkJ2060_JhU6KTZqCs-3" vertex="1" connectable="0">
          <mxGeometry x="-0.2667" relative="1" as="geometry">
            <mxPoint y="5" as="offset" />
          </mxGeometry>
        </mxCell>
        <mxCell id="uNwkJ2060_JhU6KTZqCs-4" value="" style="edgeStyle=orthogonalEdgeStyle;rounded=1;orthogonalLoop=1;jettySize=auto;html=1;endArrow=none;endFill=0;entryX=0;entryY=0.8;entryDx=0;entryDy=0;" parent="1" source="uNwkJ2060_JhU6KTZqCs-1" target="SG_5UfDZLsI8UljBUngQ-61" edge="1">
          <mxGeometry relative="1" as="geometry">
            <mxPoint x="540" y="290" as="targetPoint" />
          </mxGeometry>
        </mxCell>
        <mxCell id="uNwkJ2060_JhU6KTZqCs-7" value="12V" style="edgeLabel;html=1;align=center;verticalAlign=bottom;resizable=0;points=[];rounded=1;labelBackgroundColor=none;labelPosition=center;verticalLabelPosition=top;" parent="uNwkJ2060_JhU6KTZqCs-4" vertex="1" connectable="0">
          <mxGeometry x="0.1313" relative="1" as="geometry">
            <mxPoint as="offset" />
          </mxGeometry>
        </mxCell>
        <mxCell id="uNwkJ2060_JhU6KTZqCs-14" style="edgeStyle=orthogonalEdgeStyle;rounded=1;orthogonalLoop=1;jettySize=auto;html=1;entryX=0.5;entryY=1;entryDx=0;entryDy=0;" parent="1" source="uNwkJ2060_JhU6KTZqCs-1" target="uNwkJ2060_JhU6KTZqCs-10" edge="1">
          <mxGeometry relative="1" as="geometry" />
        </mxCell>
        <mxCell id="uNwkJ2060_JhU6KTZqCs-15" value="12V" style="edgeLabel;html=1;align=left;verticalAlign=middle;resizable=0;points=[];rounded=1;labelBackgroundColor=none;labelPosition=right;verticalLabelPosition=middle;" parent="uNwkJ2060_JhU6KTZqCs-14" vertex="1" connectable="0">
          <mxGeometry x="0.1776" y="-1" relative="1" as="geometry">
            <mxPoint y="1" as="offset" />
          </mxGeometry>
        </mxCell>
        <mxCell id="uNwkJ2060_JhU6KTZqCs-1" value="&lt;div&gt;CML05-2&lt;/div&gt;&lt;div&gt;12V Charge Regulator&lt;/div&gt;" style="rounded=1;whiteSpace=wrap;html=1;" parent="1" vertex="1">
          <mxGeometry x="295.5" y="260" width="131" height="60" as="geometry" />
        </mxCell>
        <mxCell id="uNwkJ2060_JhU6KTZqCs-13" value="" style="edgeStyle=orthogonalEdgeStyle;rounded=1;orthogonalLoop=1;jettySize=auto;html=1;" parent="1" source="uNwkJ2060_JhU6KTZqCs-10" target="itPiGZFmY9J-Glkmf1jX-1" edge="1">
          <mxGeometry relative="1" as="geometry">
            <mxPoint x="525" y="126" as="targetPoint" />
          </mxGeometry>
        </mxCell>
        <mxCell id="uNwkJ2060_JhU6KTZqCs-16" value="3,3V" style="edgeLabel;html=1;align=center;verticalAlign=bottom;resizable=0;points=[];rounded=1;labelBackgroundColor=none;labelPosition=center;verticalLabelPosition=top;" parent="uNwkJ2060_JhU6KTZqCs-13" vertex="1" connectable="0">
          <mxGeometry x="-0.16" y="2" relative="1" as="geometry">
            <mxPoint y="1" as="offset" />
          </mxGeometry>
        </mxCell>
        <mxCell id="uNwkJ2060_JhU6KTZqCs-10" value="&lt;div&gt;12V -&amp;gt; 3,3V&lt;/div&gt;&lt;div&gt;DC Converter&lt;br&gt;&lt;/div&gt;" style="rounded=1;whiteSpace=wrap;html=1;" parent="1" vertex="1">
          <mxGeometry x="301" y="96" width="120" height="60" as="geometry" />
        </mxCell>
        <mxCell id="uNwkJ2060_JhU6KTZqCs-19" value="" style="html=1;verticalLabelPosition=bottom;align=center;labelBackgroundColor=#ffffff;verticalAlign=top;strokeWidth=2;strokeColor=#0080F0;shadow=0;dashed=0;shape=mxgraph.ios7.icons.battery;direction=north;rounded=1;" parent="1" vertex="1">
          <mxGeometry x="362.5" y="450" width="12" height="30" as="geometry" />
        </mxCell>
        <mxCell id="uNwkJ2060_JhU6KTZqCs-23" value="" style="html=1;verticalLabelPosition=bottom;align=center;labelBackgroundColor=#ffffff;verticalAlign=top;strokeWidth=2;strokeColor=#0080F0;shadow=0;dashed=0;shape=mxgraph.ios7.icons.battery;direction=north;rounded=1;" parent="1" vertex="1">
          <mxGeometry x="377.5" y="450" width="12" height="30" as="geometry" />
        </mxCell>
        <mxCell id="uNwkJ2060_JhU6KTZqCs-31" value="" style="html=1;verticalLabelPosition=bottom;align=center;labelBackgroundColor=#ffffff;verticalAlign=top;strokeWidth=2;strokeColor=#0080F0;shadow=0;dashed=0;shape=mxgraph.ios7.icons.battery;direction=north;rounded=1;" parent="1" vertex="1">
          <mxGeometry x="347.5" y="450" width="12" height="30" as="geometry" />
        </mxCell>
        <mxCell id="uNwkJ2060_JhU6KTZqCs-32" value="" style="html=1;verticalLabelPosition=bottom;align=center;labelBackgroundColor=#ffffff;verticalAlign=top;strokeWidth=2;strokeColor=#0080F0;shadow=0;dashed=0;shape=mxgraph.ios7.icons.battery;direction=north;rounded=1;" parent="1" vertex="1">
          <mxGeometry x="332.5" y="450" width="12" height="30" as="geometry" />
        </mxCell>
        <mxCell id="uNwkJ2060_JhU6KTZqCs-33" value="" style="html=1;verticalLabelPosition=bottom;align=center;labelBackgroundColor=#ffffff;verticalAlign=top;strokeWidth=2;strokeColor=#0080F0;shadow=0;dashed=0;shape=mxgraph.ios7.icons.battery;direction=north;rounded=1;" parent="1" vertex="1">
          <mxGeometry x="362.5" y="489" width="12" height="30" as="geometry" />
        </mxCell>
        <mxCell id="uNwkJ2060_JhU6KTZqCs-34" value="" style="html=1;verticalLabelPosition=bottom;align=center;labelBackgroundColor=#ffffff;verticalAlign=top;strokeWidth=2;strokeColor=#0080F0;shadow=0;dashed=0;shape=mxgraph.ios7.icons.battery;direction=north;rounded=1;" parent="1" vertex="1">
          <mxGeometry x="377.5" y="489" width="12" height="30" as="geometry" />
        </mxCell>
        <mxCell id="uNwkJ2060_JhU6KTZqCs-35" value="" style="html=1;verticalLabelPosition=bottom;align=center;labelBackgroundColor=#ffffff;verticalAlign=top;strokeWidth=2;strokeColor=#0080F0;shadow=0;dashed=0;shape=mxgraph.ios7.icons.battery;direction=north;rounded=1;" parent="1" vertex="1">
          <mxGeometry x="347.5" y="489" width="12" height="30" as="geometry" />
        </mxCell>
        <mxCell id="uNwkJ2060_JhU6KTZqCs-36" value="" style="html=1;verticalLabelPosition=bottom;align=center;labelBackgroundColor=#ffffff;verticalAlign=top;strokeWidth=2;strokeColor=#0080F0;shadow=0;dashed=0;shape=mxgraph.ios7.icons.battery;direction=north;rounded=1;" parent="1" vertex="1">
          <mxGeometry x="332.5" y="489" width="12" height="30" as="geometry" />
        </mxCell>
        <mxCell id="uNwkJ2060_JhU6KTZqCs-37" value="" style="html=1;verticalLabelPosition=bottom;align=center;labelBackgroundColor=#ffffff;verticalAlign=top;strokeWidth=2;strokeColor=#0080F0;shadow=0;dashed=0;shape=mxgraph.ios7.icons.battery;direction=north;rounded=1;" parent="1" vertex="1">
          <mxGeometry x="362.5" y="529" width="12" height="30" as="geometry" />
        </mxCell>
        <mxCell id="uNwkJ2060_JhU6KTZqCs-38" value="" style="html=1;verticalLabelPosition=bottom;align=center;labelBackgroundColor=#ffffff;verticalAlign=top;strokeWidth=2;strokeColor=#0080F0;shadow=0;dashed=0;shape=mxgraph.ios7.icons.battery;direction=north;rounded=1;" parent="1" vertex="1">
          <mxGeometry x="377.5" y="529" width="12" height="30" as="geometry" />
        </mxCell>
        <mxCell id="uNwkJ2060_JhU6KTZqCs-39" value="" style="html=1;verticalLabelPosition=bottom;align=center;labelBackgroundColor=#ffffff;verticalAlign=top;strokeWidth=2;strokeColor=#0080F0;shadow=0;dashed=0;shape=mxgraph.ios7.icons.battery;direction=north;rounded=1;" parent="1" vertex="1">
          <mxGeometry x="347.5" y="529" width="12" height="30" as="geometry" />
        </mxCell>
        <mxCell id="uNwkJ2060_JhU6KTZqCs-40" value="" style="html=1;verticalLabelPosition=bottom;align=center;labelBackgroundColor=#ffffff;verticalAlign=top;strokeWidth=2;strokeColor=#0080F0;shadow=0;dashed=0;shape=mxgraph.ios7.icons.battery;direction=north;rounded=1;" parent="1" vertex="1">
          <mxGeometry x="332.5" y="529" width="12" height="30" as="geometry" />
        </mxCell>
        <mxCell id="uNwkJ2060_JhU6KTZqCs-44" value="&lt;div&gt;3S4P&lt;/div&gt;&lt;div&gt;18650&lt;/div&gt;&lt;div&gt;4x1400mAh&lt;/div&gt;&lt;div&gt;=4,8Ah&lt;br&gt;&lt;/div&gt;" style="image;html=1;image=img/lib/clip_art/general/Battery_100_128x128.png;textShadow=0;imageBorder=none;imageBackground=none;opacity=60;rounded=1;labelBackgroundColor=none;" parent="1" vertex="1">
          <mxGeometry x="277.75" y="420" width="166.5" height="170" as="geometry" />
        </mxCell>
        <mxCell id="itPiGZFmY9J-Glkmf1jX-1" value="&lt;div&gt;ESP32&lt;/div&gt;&lt;div&gt;&amp;lt;200mA Verbrauch&lt;br&gt;&lt;/div&gt;" style="verticalLabelPosition=top;html=1;verticalAlign=bottom;strokeWidth=1;align=center;outlineConnect=0;dashed=0;outlineConnect=0;shape=mxgraph.aws3d.ebs;fillColor=#ECECEC;strokeColor=#5E5E5E;aspect=fixed;labelPosition=center;" vertex="1" parent="1">
          <mxGeometry x="543" y="96" width="92" height="60" as="geometry" />
        </mxCell>
      </root>
    </mxGraphModel>
  </diagram>
</mxfile>
